<svg id="Lag_2" data-name="Lag 2" xmlns="http://www.w3.org/2000/svg" viewBox="0 0 2415.31 1528.34"><defs><style>.cls-1{fill:#fff;}</style></defs><title>Vaar vector</title><path class="cls-1" d="M771,1125c-2.06,1.63-97.64-18.77-140-112-24.14-53.12-24.58-142.78-.67-205.33,13.84-36.19,55.4-76.74,84-100.67,67-56.07,148-67.33,168.67-69.33,90.16-8.73,162.67,1.38,194,9.33,47,11.93,153.33,44,228,76,8.75,3.75,38,16.26,66.67,8.67,19.23-5.1,30.71-14,29.33-18.67-3.33-11.33-27.33-11.33-60,12-45.86,32.76-68.07,84.18-76,112-17.21,60.37-9,117.07,8,228,13.45,87.54,15,87,21,144,1.61,15.31,4,80.7-17,164-41,162.7-142.25,264.59-138,268,4.08,3.27,101-87.55,260-300,178.34-238.29,267.48-357,342-490,26.73-47.7,83.12-132.7,165-248,74.44-104.83,117-146.24,157-178,22.89-18.17,89.59-68.5,190-104,30.69-10.85,151.53-51.08,312-34,65.5,7,140.76,15,224,62,22.4,12.65,134.05,78.22,196,210,123.82,263.4-57.36,527.45-78,556-36.46,50.42-120.27,158.94-254,206-40.36,14.2-155.12,52.64-288,4-28.67-10.5-142.62-56-212-180-9.3-16.63-98.48-182.7-16-360,13-28,102-181,258-212,19.63-3.9,152.25-24.41,260,66,19.91,16.71,91.14,76.47,102,180,1.71,16.31,10.82,119.72-66,200-14.51,15.16-76.24,79.68-170,74-65.77-4-139.45-42-170-114-4.44-10.47-36.71-90.16,10-160,5.08-7.6,46.14-66.82,118-68,16-.26,69.57,1.75,104,46,3.7,4.76,38.89,51.6,20,106-1.12,3.22-19.53,53.64-68,66-8.34,2.13-30.51,7.43-54-4-29.82-14.5-43.52-46.93-40-50s20.86,26.66,54,32c25,4,54.23-6.62,72-28,25.87-31.13,20.47-76.58,2-104-29.82-44.28-98-47.94-142-26-58.58,29.24-76.84,105.29-62,162,21.54,82.28,108.45,107.41,118,110,87.79,23.8,159.79-33.86,180-52,7.95-7.13,73.12-67.64,72-164-1-84.45-52.21-139-72-160-94.93-101-230.72-90.67-238-90-165.73,15.31-245,174.36-258,202-7.75,16.45-79.89,176.64,10,334,92,161,273,177.94,300,180,190.71,14.53,320-123,366-172,32.43-34.51,145.66-163.94,150-356,1.1-48.63,3.3-145.93-56-240-94.85-150.47-275.39-179-332-188-278.94-44.14-500.25,134.59-554,178-69.56,56.17-125.59,105.2-202,228-56,90-60,103-115,181-30.54,43.31-89.46,136.93-123,183-45.26,62.17-87,141.6-212,282-252,283-261,290-322,357-6.77,7.43-52.54,50.24-59,47-9.05-4.54,16.28-65,35-110,32.54-78.28,48.68-91.19,59-148,6.12-33.71,12.54-57.07,12-76-5-174,5.79-346.24,9-372,12-96.51,21.92-170.69,64-248,29.18-53.62,62.43-93.78,86-118,0,0,15.72-18.31,60-41.33,16.67-8.67,33.33-18.67,61.33-20,10.68-.51,19.39,7.66,24.67,21.33,8.5,22-10.55,37.75-15,41-8.67,6.33-46.06,24.55-81,15-57.33-15.67-102-31.33-116-38-108.06-51.46-233.44-70-318-54-36.46,6.92-127.09,24.11-184,104-53.09,74.52-47.44,160.3-45.33,176.67C683.6,1051.8,773.35,1123.13,771,1125Z" transform="translate(-612.64 -282.83)"/><path class="cls-1" d="M1824,1131a62,62,0,1,0,62,62A62,62,0,0,0,1824,1131Zm1,100a37,37,0,1,1,37-37A37,37,0,0,1,1825,1231Z" transform="translate(-612.64 -282.83)"/><path class="cls-1" d="M2521,1398c-6.45-3.27-18.67,6.33-28,20-33.5,49.06-81,107-81,107-32,40-32.46,52.22-117.67,124-7.5,6.32-63,44.5-93.33,46-8.32.41-25.1,3.19-33-6-11.9-13.83-6.34-42.7,8-68,51-90,80-139,121-204,4.8-7.61,23-37,30-60a54.2,54.2,0,0,0-5-42c-12.93-22.24-42.61-30.8-65-26-9.58,2.05-17.85,8.06-34,20-23.13,17.09-29.62,25.3-52,44-9.58,8-17.68,14.26-24.55,19.13,10.63-14.93,20.78-31.56,27.55-48.13,2.72-6.64,10.13-20.9,7.67-37-.91-6-5.8-19.54-15.67-27-17.53-13.25-47.67-1.67-65,13-30.19,25.54-48.11,55.94-46.67,89.33.57,13.15,2.1,38.75,16.67,50.67a37.05,37.05,0,0,0,4.26,3c-11.53,14.9-24.37,30.51-38.26,46-67.27,75.09-70.67,74-178,180,0,0-16,16-71,54-10.7,7.4-38.34,16.52-51,12-11.17-4-11.58-16-13-26-2-14,8-39.57,11-46,12-26,32-60,109-199,55.5-100.19,92.57-152.92,81-164-3.94-3.77-16.71,9.63-21,15-8,10-11,19-25,20-6.12.44.57.19-33-7-14-3-24-4.07-32-1-10.4,4-17.15,22.32-20,17-15-28-67-33-91-32-116,5-215.64,98-251,155-51,82.29-49.82,156.17-49,175,1.41,32.41,3.36,77.47,37,104,24.07,19,77.44,18.17,107,10,50.67-14,71-58,82-68,3.31-3,20.06,23.51,24,31,0,0,22,39,64,43,8,.76,39.85,11,114-36,41-26,66.54-54,178-172,30.94-32.77,58.76-68.51,91-100,0,0,1.72-1.68,4.65-4.72,10.6-.61,26.81-8.85,29.68-10.61,31-19,44.36-31.35,48.67-28.67,5.56,3.46-17.64,50.28-54,112-33.12,56.23-46.48,65.78-56,103-5.16,20.19-13.52,54.91,3,90,3.6,7.65,15.08,32,41,44,19.6,9.05,48,4.33,71.33.33,54.53-9.35,97.33-38,127.67-62.33,43-34.52,65-61,136-151,10.17-12.89,49-62,71-101C2525.46,1413.64,2526.85,1401,2521,1398Zm-880.67,189c-23.87,41.12-45,71.77-56.67,86-18,22-46.11,40-73.33,35.33-23.33-4-26-56-8.67-113.33,2.94-9.71,38.35-96.64,106-181.33,45.34-56.77,69.24-74.6,82-84S1739.3,1312,1757,1327c8.67,7.33,12.2,15.18,9.33,26.67-6.67,26.67-27.57,62-30,66C1697,1483.67,1672.62,1531.39,1640.33,1587Zm448-215.33c-9.11-21.78,8.6-47.07,19.67-62.67,6.62-9.33,19.8-24.69,31-23,4.56.69,9.16,4.86,11,9,4,9-15.05,32-22,44-6.41,11.11-17.31,27.7-29.67,45.33C2092.56,1379.2,2089.2,1373.73,2088.33,1371.67Z" transform="translate(-612.64 -282.83)"/></svg>